<svg xmlns="http://www.w3.org/2000/svg" xmlns:xlink="http://www.w3.org/1999/xlink" xmlns:lucid="lucid" width="1201.16" height="1156.96"><g transform="translate(-403.1782678529703 -6.240430485412958)" lucid:page-tab-id="0_0"><path d="M1083.74 480.03c114.64 247 106.16 494.32-18.93 552.37-125.08 58.05-319.42-95.13-434.06-342.14-114.63-247-106.15-494.32 18.94-552.37 125.1-58.07 319.43 95.1 434.06 342.13z" stroke="#000" stroke-opacity="0" fill="#ffd6f5"/><path d="M1374.4 692.03c-115.95 249.18-313.2 403.12-440.56 343.85-127.37-59.26-136.62-309.3-20.67-558.48 115.94-249.17 313.2-403.1 440.56-343.84 127.36 59.26 136.62 309.3 20.67 558.47z" stroke="#000" stroke-opacity="0" fill="#ffd6f5"/><path d="M1160 876.56c0 89.36-76.1 161.8-170 161.8s-170-72.44-170-161.8c0-89.36 76.1-161.8 170-161.8s170 72.44 170 161.8z" stroke="#000" stroke-opacity="0" fill="#ffd6f5"/><path d="M600 240h200v136H600z" fill="#fff"/><path d="M600 312v33h200v-33" fill="#ffd9d9"/><path d="M600 280v-40h200v40" fill="#ff8f8f"/><path d="M600 240h200v136H600zM600 280h200" stroke="#333" fill="none"/><use xlink:href="#a" transform="matrix(1,0,0,1,610,240) translate(0 24.444444444444443)"/><use xlink:href="#b" transform="matrix(1,0,0,1,605,282.5) translate(0 17.1)"/><use xlink:href="#c" transform="matrix(1,0,0,1,605,314.5) translate(0 17.1)"/><use xlink:href="#d" transform="matrix(1,0,0,1,605,346.5) translate(0 17.1)"/><path d="M1220 240h200v168h-200z" fill="#fff"/><path d="M1220 312v33h200v-33M1220 376v32h200v-32" fill="#ffd9d9"/><path d="M1220 280v-40h200v40" fill="#ff8f8f"/><path d="M1220 240h200v168h-200zM1220 280h200" stroke="#333" fill="none"/><use xlink:href="#e" transform="matrix(1,0,0,1,1230,240) translate(0 24.444444444444443)"/><use xlink:href="#b" transform="matrix(1,0,0,1,1225,282.5) translate(0 17.1)"/><use xlink:href="#f" transform="matrix(1,0,0,1,1225,314.5) translate(0 17.1)"/><use xlink:href="#g" transform="matrix(1,0,0,1,1225,346.5) translate(0 17.1)"/><use xlink:href="#h" transform="matrix(1,0,0,1,1225,378.5) translate(0 17.1)"/><path d="M895.08 400h200v200h-200z" fill="#fff"/><path d="M895.08 472v33h200v-33M895.08 536v33h200v-33" fill="#ffd9d9"/><path d="M895.08 440v-40h200v40" fill="#ff8f8f"/><path d="M895.08 400h200v200h-200zM895.08 440h200" stroke="#333" fill="none"/><use xlink:href="#i" transform="matrix(1,0,0,1,905.0762647176487,400) translate(0 24.444444444444443)"/><use xlink:href="#j" transform="matrix(1,0,0,1,900.0762647176487,442.5) translate(0 17.1)"/><use xlink:href="#k" transform="matrix(1,0,0,1,900.0762647176487,474.5) translate(0 17.1)"/><use xlink:href="#l" transform="matrix(1,0,0,1,900.0762647176487,506.5) translate(0 17.1)"/><use xlink:href="#m" transform="matrix(1,0,0,1,900.0762647176487,538.5) translate(0 17.1)"/><use xlink:href="#n" transform="matrix(1,0,0,1,900.0762647176487,570.5) translate(0 17.1)"/><path d="M1071.57 680h200v136h-200z" fill="#fff"/><path d="M1071.57 752v33h200v-33" fill="#ffd9d9"/><path d="M1071.57 720v-40h200v40" fill="#ff8f8f"/><path d="M1071.57 680h200v136h-200zM1071.57 720h200" stroke="#333" fill="none"/><use xlink:href="#o" transform="matrix(1,0,0,1,1081.565756608901,680) translate(0 24.444444444444443)"/><use xlink:href="#p" transform="matrix(1,0,0,1,1076.565756608901,722.5) translate(0 17.1)"/><use xlink:href="#j" transform="matrix(1,0,0,1,1076.565756608901,754.5) translate(0 17.1)"/><use xlink:href="#q" transform="matrix(1,0,0,1,1076.565756608901,786.5) translate(0 17.1)"/><path d="M720.55 680h200v136h-200z" fill="#fff"/><path d="M720.55 752v33h200v-33" fill="#ffd9d9"/><path d="M720.55 720v-40h200v40" fill="#ff8f8f"/><path d="M720.55 680h200v136h-200zM720.55 720h200" stroke="#333" fill="none"/><use xlink:href="#r" transform="matrix(1,0,0,1,730.5489070754038,680) translate(0 24.444444444444443)"/><use xlink:href="#j" transform="matrix(1,0,0,1,725.5489070754038,722.5) translate(0 17.1)"/><use xlink:href="#s" transform="matrix(1,0,0,1,725.5489070754038,754.5) translate(0 17.1)"/><use xlink:href="#q" transform="matrix(1,0,0,1,725.5489070754038,786.5) translate(0 17.1)"/><path d="M820.5 295.94H918a12 12 0 0 1 12 12V328a12 12 0 0 0 12 12h244.5a12 12 0 0 1 12 12v38.75a1.6 1.6 0 0 0 1.6 1.6" stroke="#333" fill="none"/><path d="M820.5 305.94v-20M800.5 295.94h20" stroke="#333" fill="#fff"/><path d="M1219.28 402.34l-20-10 20-10" stroke="#333" fill="#fff" fill-opacity="0"/><path d="M1219.28 392.34h-20" stroke="#333" fill="#fff"/><path d="M820.5 295.94h15.04a12 12 0 0 1 12 12v135.84a12 12 0 0 0 12 12h15.62" stroke="#333" fill="none"/><path d="M820.5 305.94v-20M800.5 295.94h20" stroke="#333" fill="#fff"/><path d="M894.35 465.78l-20-10 20-10" stroke="#333" fill="#fff" fill-opacity="0"/><path d="M894.35 455.78h-20" stroke="#333" fill="#fff"/><path d="M1440 296.36V418a12 12 0 0 1-12 12h-122.93a12 12 0 0 0-12 12v292.35a1.6 1.6 0 0 1-1.6 1.6" stroke="#333" fill="none"/><path d="M1440.24 306.37l.5-20M1420.5 295.86l20 .5" stroke="#333" fill="#fff"/><path d="M1272.3 725.94l20 10-20 10" stroke="#333" fill="#fff" fill-opacity="0"/><path d="M1272.3 735.94h20" stroke="#333" fill="#fff"/><path d="M580 296.44V378a12 12 0 0 0 12 12h95.05a12 12 0 0 1 12 12v332.35a1.6 1.6 0 0 0 1.6 1.6" stroke="#333" fill="none"/><path d="M579.25 286.46l.5 20M599.5 295.94l-20 .5" stroke="#333" fill="#fff"/><path d="M719.83 745.94l-20-10 20-10" stroke="#333" fill="#fff" fill-opacity="0"/><path d="M719.83 735.94h-20" stroke="#333" fill="#fff"/><path d="M579.5 295.94h-8a12 12 0 0 0-12 12V438a12 12 0 0 0 12 12H658a12 12 0 0 1 12 12v294.1a12 12 0 0 0 12 12h18.64" stroke="#333" fill="none"/><path d="M579.5 285.94v20M599.5 295.94h-20" stroke="#333" fill="#fff"/><path d="M719.83 778.1l-20-10 20-10" stroke="#333" fill="#fff" fill-opacity="0"/><path d="M719.83 768.1h-20" stroke="#333" fill="#fff"/><path d="M820.5 295.94a9.5 9.5 0 0 1 9.5 9.5V628a12 12 0 0 0 12 12h106a12 12 0 0 1 12 12v104.1a12 12 0 0 0 12 12h79.65" stroke="#333" fill="none"/><path d="M820.5 305.94v-20M800.5 295.94h20" stroke="#333" fill="#fff"/><path d="M1070.84 778.1l-20-10 20-10" stroke="#333" fill="#fff" fill-opacity="0"/><path d="M1070.84 768.1h-20" stroke="#333" fill="#fff"/><defs><path fill="#333" d="M156-122c2-23-7-37-28-37-47 0-58 44-58 89 0 24 12 40 36 40 43 0 47-49 50-92zM-8 75l50-265h48c0 10-3 24-3 30 22-50 127-45 121 29-6 73-21 135-92 135-29 0-46-14-55-35L41 75H-8" id="t"/><path fill="#333" d="M50-224l7-37h49l-7 37H50zM6 0l37-190h49L55 0H6" id="u"/><path fill="#333" d="M84-151c13-25 34-51 72-40l-8 41C67-170 71-64 56 0H6l36-190h47" id="v"/><path fill="#333" d="M166-52c-4 17 5 29 24 23l-3 27c-30 11-74 1-67-34C105-15 91 4 56 4 23 4 3-15 2-49c0-64 63-67 128-67 10-22 3-53-29-45-13 3-22 10-25 24l-46-5c5-64 156-77 153 0-1 33-11 60-17 90zM97-88c-44-9-64 57-19 57 31 0 42-28 47-57H97" id="w"/><path fill="#333" d="M72-63c-8 23 5 39 32 30L98-1C54 14 12-6 23-64l18-93H15l7-33h28l24-45h31l-8 45h35l-6 33H90" id="x"/><path fill="#333" d="M114-194c63-2 87 48 72 110H63c-3 28 1 55 31 54 21-1 32-13 37-29l44 13C160-14 137 4 91 4 41 4 11-22 11-73c0-71 33-119 103-121zm30 77c14-47-50-61-67-22-3 6-6 13-8 22h75" id="y"/><path fill="#333" d="M144-137c-1-29-70-35-71-2 16 41 103 10 103 80C176 9 79 16 32-9 18-17 9-31 4-48l44-6c3 32 80 36 82 1-15-42-103-11-103-82 0-77 157-79 161-8" id="z"/><g id="a"><use transform="matrix(0.06172839506172839,0,0,0.06172839506172839,0,0)" xlink:href="#t"/><use transform="matrix(0.06172839506172839,0,0,0.06172839506172839,13.518518518518517,0)" xlink:href="#u"/><use transform="matrix(0.06172839506172839,0,0,0.06172839506172839,19.691358024691358,0)" xlink:href="#v"/><use transform="matrix(0.06172839506172839,0,0,0.06172839506172839,28.333333333333332,0)" xlink:href="#w"/><use transform="matrix(0.06172839506172839,0,0,0.06172839506172839,40.67901234567901,0)" xlink:href="#x"/><use transform="matrix(0.06172839506172839,0,0,0.06172839506172839,48.02469135802469,0)" xlink:href="#y"/><use transform="matrix(0.06172839506172839,0,0,0.06172839506172839,60.37037037037037,0)" xlink:href="#z"/></g><path fill="#333" d="M50-231l6-30h32l-6 30H50zM6 0l37-190h31L37 0H6" id="A"/><path fill="#333" d="M133-28C103 26-5 8 13-77c13-62 24-115 90-117 29-1 46 15 56 35l19-102h32L160 0h-30zM45-64c-2 27 10 43 35 43 54-1 69-50 69-103 0-29-15-46-42-46-53-1-58 58-62 106" id="B"/><g id="b"><use transform="matrix(0.05,0,0,0.05,0,0)" xlink:href="#A"/><use transform="matrix(0.05,0,0,0.05,3.95,0)" xlink:href="#B"/></g><path fill="#333" d="M76-167L44 0H12l33-167H18l4-23h27c3-47 25-81 82-69l-4 24c-35-8-44 15-46 45h37l-5 23H76" id="C"/><path fill="#333" d="M66-151c12-25 30-51 66-40l-6 26C45-176 58-65 38 0H6l36-190h30" id="D"/><path fill="#333" d="M55-144c13 50 104 24 104 88C159 21 15 23 1-39l26-10c6 40 102 42 102-4-13-50-104-23-104-87 0-71 143-71 148-8l-29 4c-5-35-85-37-89 0" id="E"/><path fill="#333" d="M51-54c-9 22 5 41 31 30L79-1C43 14 10-4 19-52l22-115H19l5-23h22l19-43h21l-9 43h35l-4 23H73" id="F"/><path fill="#333" d="M-28 44V31h207v13H-28" id="G"/><path fill="#333" d="M67-158c22-48 132-52 116 29L158 0h-32l25-140c3-38-53-32-70-12C52-117 51-52 38 0H6l36-190h30" id="H"/><path fill="#333" d="M165-48c-4 18 1 34 23 27l-3 20c-29 8-62 0-52-35h-2C116-14 99 4 63 4 30 4 8-16 8-49c0-68 71-67 138-67 10-26 0-56-31-54-26 1-42 9-47 31l-32-5c8-67 160-71 144 15-5 28-9 54-15 81zM42-50c3 52 80 24 89-6 7-12 7-24 11-38-47 1-103-4-100 44" id="I"/><path fill="#333" d="M248-111c6-24 9-61-24-58-72 9-57 108-77 169h-31l26-142c3-37-50-30-64-10C52-115 50-51 37 0H6l36-190h30c-1 10-6 24-4 32 13-43 101-52 105 5 13-22 29-41 61-41 90 0 28 129 23 194h-31" id="J"/><path fill="#333" d="M111-194c62-3 86 47 72 106H45c-7 38 6 69 45 68 27-1 43-14 53-32l24 11C152-15 129 4 87 4 38 3 12-23 12-71c0-70 32-119 99-123zm44 81c14-66-71-72-95-28-4 8-8 17-11 28h106" id="K"/><g id="c"><use transform="matrix(0.05,0,0,0.05,0,0)" xlink:href="#C"/><use transform="matrix(0.05,0,0,0.05,5,0)" xlink:href="#A"/><use transform="matrix(0.05,0,0,0.05,8.95,0)" xlink:href="#D"/><use transform="matrix(0.05,0,0,0.05,14.899999999999999,0)" xlink:href="#E"/><use transform="matrix(0.05,0,0,0.05,23.9,0)" xlink:href="#F"/><use transform="matrix(0.05,0,0,0.05,28.899999999999995,0)" xlink:href="#G"/><use transform="matrix(0.05,0,0,0.05,38.9,0)" xlink:href="#H"/><use transform="matrix(0.05,0,0,0.05,48.9,0)" xlink:href="#I"/><use transform="matrix(0.05,0,0,0.05,58.900000000000006,0)" xlink:href="#J"/><use transform="matrix(0.05,0,0,0.05,73.85,0)" xlink:href="#K"/></g><path fill="#333" d="M6 0l50-261h32L37 0H6" id="L"/><g id="d"><use transform="matrix(0.05,0,0,0.05,0,0)" xlink:href="#L"/><use transform="matrix(0.05,0,0,0.05,3.95,0)" xlink:href="#I"/><use transform="matrix(0.05,0,0,0.05,13.949999999999998,0)" xlink:href="#E"/><use transform="matrix(0.05,0,0,0.05,22.95,0)" xlink:href="#F"/><use transform="matrix(0.05,0,0,0.05,27.950000000000003,0)" xlink:href="#G"/><use transform="matrix(0.05,0,0,0.05,37.95,0)" xlink:href="#H"/><use transform="matrix(0.05,0,0,0.05,47.95,0)" xlink:href="#I"/><use transform="matrix(0.05,0,0,0.05,57.95,0)" xlink:href="#J"/><use transform="matrix(0.05,0,0,0.05,72.9,0)" xlink:href="#K"/></g><path fill="#333" d="M150-105c8-23 8-54-22-51-68 7-54 98-72 156H6l50-261h50L85-158c15-20 33-36 66-36 95 0 34 128 28 194h-49" id="M"/><g id="e"><use transform="matrix(0.06172839506172839,0,0,0.06172839506172839,0,0)" xlink:href="#z"/><use transform="matrix(0.06172839506172839,0,0,0.06172839506172839,12.345679012345679,0)" xlink:href="#M"/><use transform="matrix(0.06172839506172839,0,0,0.06172839506172839,25.864197530864196,0)" xlink:href="#u"/><use transform="matrix(0.06172839506172839,0,0,0.06172839506172839,32.03703703703704,0)" xlink:href="#t"/><use transform="matrix(0.06172839506172839,0,0,0.06172839506172839,45.55555555555556,0)" xlink:href="#z"/></g><g id="f"><use transform="matrix(0.05,0,0,0.05,0,0)" xlink:href="#H"/><use transform="matrix(0.05,0,0,0.05,10,0)" xlink:href="#I"/><use transform="matrix(0.05,0,0,0.05,20,0)" xlink:href="#J"/><use transform="matrix(0.05,0,0,0.05,34.95,0)" xlink:href="#K"/></g><path fill="#333" d="M44-68c0 29 11 47 38 47 30 0 42-19 51-41l28 9C148-21 126 4 82 4 31 4 10-29 12-85c3-77 74-140 146-93 12 8 15 23 18 40l-31 5c-1-22-13-36-36-36-52 0-65 49-65 101" id="N"/><path fill="#333" d="M188 0h-37l-8-164L71 0H34L18-190h31l8 164 75-164h34l8 164 74-164h31" id="O"/><path fill="#333" d="M67 3c-93-2-31-127-26-193h32L48-50c-3 39 53 32 70 12 30-34 30-101 43-152h32L157 0h-30c1-10 6-24 4-33-14 20-29 37-64 36" id="P"/><path fill="#333" d="M68-162c25-46 127-43 121 31C183-60 169 1 98 4 69 5 53-11 43-31L36 0H5l52-261h31zm88 36c2-27-9-43-34-43-55 0-70 51-70 103 0 29 15 45 43 46 52 0 58-58 61-106" id="Q"/><g id="g"><use transform="matrix(0.05,0,0,0.05,0,0)" xlink:href="#N"/><use transform="matrix(0.05,0,0,0.05,9,0)" xlink:href="#D"/><use transform="matrix(0.05,0,0,0.05,14.949999999999998,0)" xlink:href="#K"/><use transform="matrix(0.05,0,0,0.05,24.95,0)" xlink:href="#O"/><use transform="matrix(0.05,0,0,0.05,37.9,0)" xlink:href="#G"/><use transform="matrix(0.05,0,0,0.05,47.9,0)" xlink:href="#H"/><use transform="matrix(0.05,0,0,0.05,57.900000000000006,0)" xlink:href="#P"/><use transform="matrix(0.05,0,0,0.05,67.9,0)" xlink:href="#J"/><use transform="matrix(0.05,0,0,0.05,82.85000000000001,0)" xlink:href="#Q"/><use transform="matrix(0.05,0,0,0.05,92.85000000000001,0)" xlink:href="#K"/><use transform="matrix(0.05,0,0,0.05,102.85000000000001,0)" xlink:href="#D"/></g><path fill="#333" d="M67-162c32-53 139-36 121 50C175-51 163 2 97 4 68 4 52-11 42-31 38 6 28 39 22 75H-9l50-265h29c-1 10 0 20-3 28zm89 36c0-26-10-43-35-43-54 0-67 50-69 103-1 29 14 45 42 46 53 0 62-58 62-106" id="R"/><g id="h"><use transform="matrix(0.05,0,0,0.05,0,0)" xlink:href="#N"/><use transform="matrix(0.05,0,0,0.05,9,0)" xlink:href="#I"/><use transform="matrix(0.05,0,0,0.05,19,0)" xlink:href="#R"/><use transform="matrix(0.05,0,0,0.05,29,0)" xlink:href="#F"/><use transform="matrix(0.05,0,0,0.05,34,0)" xlink:href="#I"/><use transform="matrix(0.05,0,0,0.05,44,0)" xlink:href="#A"/><use transform="matrix(0.05,0,0,0.05,47.95,0)" xlink:href="#H"/><use transform="matrix(0.05,0,0,0.05,57.95,0)" xlink:href="#G"/><use transform="matrix(0.05,0,0,0.05,67.95,0)" xlink:href="#A"/><use transform="matrix(0.05,0,0,0.05,71.9,0)" xlink:href="#B"/></g><path fill="#333" d="M-21 44V30h207v14H-21" id="S"/><path fill="#333" d="M132-28C118-9 101 4 69 4 30 4 10-23 10-62c0-70 24-129 92-132 31-1 47 14 56 35l19-102h49L179 0h-49zM62-69c0 22 7 39 29 39 45-2 54-45 57-90 2-27-10-40-33-40-44 0-53 48-53 91" id="T"/><path fill="#333" d="M6 0l51-261h49L55 0H6" id="U"/><g id="i"><use transform="matrix(0.06172839506172839,0,0,0.06172839506172839,0,0)" xlink:href="#t"/><use transform="matrix(0.06172839506172839,0,0,0.06172839506172839,13.518518518518517,0)" xlink:href="#u"/><use transform="matrix(0.06172839506172839,0,0,0.06172839506172839,19.691358024691358,0)" xlink:href="#v"/><use transform="matrix(0.06172839506172839,0,0,0.06172839506172839,28.333333333333332,0)" xlink:href="#w"/><use transform="matrix(0.06172839506172839,0,0,0.06172839506172839,40.67901234567901,0)" xlink:href="#x"/><use transform="matrix(0.06172839506172839,0,0,0.06172839506172839,48.02469135802469,0)" xlink:href="#y"/><use transform="matrix(0.06172839506172839,0,0,0.06172839506172839,60.37037037037037,0)" xlink:href="#S"/><use transform="matrix(0.06172839506172839,0,0,0.06172839506172839,72.71604938271605,0)" xlink:href="#T"/><use transform="matrix(0.06172839506172839,0,0,0.06172839506172839,86.23456790123457,0)" xlink:href="#y"/><use transform="matrix(0.06172839506172839,0,0,0.06172839506172839,98.58024691358025,0)" xlink:href="#x"/><use transform="matrix(0.06172839506172839,0,0,0.06172839506172839,105.92592592592594,0)" xlink:href="#w"/><use transform="matrix(0.06172839506172839,0,0,0.06172839506172839,118.27160493827162,0)" xlink:href="#u"/><use transform="matrix(0.06172839506172839,0,0,0.06172839506172839,124.44444444444446,0)" xlink:href="#U"/><use transform="matrix(0.06172839506172839,0,0,0.06172839506172839,130.6172839506173,0)" xlink:href="#z"/></g><g id="j"><use transform="matrix(0.05,0,0,0.05,0,0)" xlink:href="#R"/><use transform="matrix(0.05,0,0,0.05,10,0)" xlink:href="#A"/><use transform="matrix(0.05,0,0,0.05,13.949999999999998,0)" xlink:href="#D"/><use transform="matrix(0.05,0,0,0.05,19.9,0)" xlink:href="#I"/><use transform="matrix(0.05,0,0,0.05,29.899999999999995,0)" xlink:href="#F"/><use transform="matrix(0.05,0,0,0.05,34.9,0)" xlink:href="#K"/><use transform="matrix(0.05,0,0,0.05,44.9,0)" xlink:href="#G"/><use transform="matrix(0.05,0,0,0.05,54.900000000000006,0)" xlink:href="#A"/><use transform="matrix(0.05,0,0,0.05,58.85,0)" xlink:href="#B"/></g><path fill="#333" d="M67-158c15-20 31-36 64-36 94 0 33 127 27 194h-32l25-140c3-38-53-32-70-12C52-117 51-51 37 0H6l51-261h31" id="V"/><path fill="#333" d="M30-147c31-64 166-65 159 27C183-49 158 1 86 4 9 8 1-88 30-147zM88-20c53 0 68-48 68-100 0-31-11-51-44-50-52 1-68 46-68 97 0 32 13 53 44 53" id="W"/><g id="k"><use transform="matrix(0.05,0,0,0.05,0,0)" xlink:href="#R"/><use transform="matrix(0.05,0,0,0.05,10,0)" xlink:href="#A"/><use transform="matrix(0.05,0,0,0.05,13.949999999999998,0)" xlink:href="#D"/><use transform="matrix(0.05,0,0,0.05,19.9,0)" xlink:href="#I"/><use transform="matrix(0.05,0,0,0.05,29.899999999999995,0)" xlink:href="#F"/><use transform="matrix(0.05,0,0,0.05,34.9,0)" xlink:href="#K"/><use transform="matrix(0.05,0,0,0.05,44.9,0)" xlink:href="#G"/><use transform="matrix(0.05,0,0,0.05,54.900000000000006,0)" xlink:href="#V"/><use transform="matrix(0.05,0,0,0.05,64.9,0)" xlink:href="#W"/><use transform="matrix(0.05,0,0,0.05,74.9,0)" xlink:href="#Q"/><use transform="matrix(0.05,0,0,0.05,84.9,0)" xlink:href="#Q"/><use transform="matrix(0.05,0,0,0.05,94.9,0)" xlink:href="#A"/><use transform="matrix(0.05,0,0,0.05,98.85000000000001,0)" xlink:href="#K"/><use transform="matrix(0.05,0,0,0.05,108.85000000000001,0)" xlink:href="#E"/></g><path fill="#333" d="M89 0H52L20-190h33L74-25l89-165h34" id="X"/><g id="l"><use transform="matrix(0.05,0,0,0.05,0,0)" xlink:href="#C"/><use transform="matrix(0.05,0,0,0.05,5,0)" xlink:href="#I"/><use transform="matrix(0.05,0,0,0.05,15,0)" xlink:href="#X"/><use transform="matrix(0.05,0,0,0.05,24,0)" xlink:href="#G"/><use transform="matrix(0.05,0,0,0.05,34,0)" xlink:href="#R"/><use transform="matrix(0.05,0,0,0.05,44,0)" xlink:href="#L"/><use transform="matrix(0.05,0,0,0.05,47.95,0)" xlink:href="#I"/><use transform="matrix(0.05,0,0,0.05,57.95,0)" xlink:href="#N"/><use transform="matrix(0.05,0,0,0.05,66.95,0)" xlink:href="#K"/><use transform="matrix(0.05,0,0,0.05,76.95,0)" xlink:href="#G"/><use transform="matrix(0.05,0,0,0.05,86.95,0)" xlink:href="#F"/><use transform="matrix(0.05,0,0,0.05,91.95,0)" xlink:href="#W"/><use transform="matrix(0.05,0,0,0.05,101.95,0)" xlink:href="#G"/><use transform="matrix(0.05,0,0,0.05,111.95,0)" xlink:href="#R"/><use transform="matrix(0.05,0,0,0.05,121.95,0)" xlink:href="#L"/><use transform="matrix(0.05,0,0,0.05,125.9,0)" xlink:href="#P"/><use transform="matrix(0.05,0,0,0.05,135.9,0)" xlink:href="#H"/><use transform="matrix(0.05,0,0,0.05,145.9,0)" xlink:href="#B"/><use transform="matrix(0.05,0,0,0.05,155.9,0)" xlink:href="#K"/><use transform="matrix(0.05,0,0,0.05,165.9,0)" xlink:href="#D"/></g><g id="m"><use transform="matrix(0.05,0,0,0.05,0,0)" xlink:href="#C"/><use transform="matrix(0.05,0,0,0.05,5,0)" xlink:href="#I"/><use transform="matrix(0.05,0,0,0.05,15,0)" xlink:href="#X"/><use transform="matrix(0.05,0,0,0.05,24,0)" xlink:href="#G"/><use transform="matrix(0.05,0,0,0.05,34,0)" xlink:href="#R"/><use transform="matrix(0.05,0,0,0.05,44,0)" xlink:href="#A"/><use transform="matrix(0.05,0,0,0.05,47.95,0)" xlink:href="#D"/><use transform="matrix(0.05,0,0,0.05,53.900000000000006,0)" xlink:href="#I"/><use transform="matrix(0.05,0,0,0.05,63.900000000000006,0)" xlink:href="#F"/><use transform="matrix(0.05,0,0,0.05,68.9,0)" xlink:href="#K"/><use transform="matrix(0.05,0,0,0.05,78.9,0)" xlink:href="#G"/><use transform="matrix(0.05,0,0,0.05,88.9,0)" xlink:href="#J"/><use transform="matrix(0.05,0,0,0.05,103.85000000000001,0)" xlink:href="#P"/><use transform="matrix(0.05,0,0,0.05,113.85000000000001,0)" xlink:href="#E"/><use transform="matrix(0.05,0,0,0.05,122.85000000000001,0)" xlink:href="#A"/><use transform="matrix(0.05,0,0,0.05,126.80000000000001,0)" xlink:href="#N"/></g><path fill="#333" d="M103-194c29 0 47 14 56 36 2-11 5-23 8-32h30L160-5C157 61 82 97 21 62 9 55 4 45 1 30l28-7c7 42 83 31 92-3 4-16 9-38 13-55-13 20-29 36-62 36-40 0-60-25-60-64 0-71 23-131 91-131zm4 24c-53 0-58 54-61 104-2 27 10 44 36 44 49 0 65-50 67-102 1-29-15-46-42-46" id="Y"/><g id="n"><use transform="matrix(0.05,0,0,0.05,0,0)" xlink:href="#R"/><use transform="matrix(0.05,0,0,0.05,10,0)" xlink:href="#A"/><use transform="matrix(0.05,0,0,0.05,13.949999999999998,0)" xlink:href="#D"/><use transform="matrix(0.05,0,0,0.05,19.9,0)" xlink:href="#I"/><use transform="matrix(0.05,0,0,0.05,29.899999999999995,0)" xlink:href="#F"/><use transform="matrix(0.05,0,0,0.05,34.9,0)" xlink:href="#K"/><use transform="matrix(0.05,0,0,0.05,44.9,0)" xlink:href="#G"/><use transform="matrix(0.05,0,0,0.05,54.900000000000006,0)" xlink:href="#I"/><use transform="matrix(0.05,0,0,0.05,64.9,0)" xlink:href="#Y"/><use transform="matrix(0.05,0,0,0.05,74.9,0)" xlink:href="#K"/></g><path fill="#333" d="M67-101c-8 29-7 73 27 71 23-2 32-16 39-37l48 9C170-19 141 4 91 4 36 4 7-28 12-86c6-75 61-124 140-103 26 7 40 29 43 59l-50 4c-1-20-9-34-29-34-35 0-41 29-49 59" id="Z"/><path fill="#333" d="M212 0h-52l-8-156L82 0H30L17-190h46l2 145 66-145h53l8 145 60-145h47" id="aa"/><g id="o"><use transform="matrix(0.06172839506172839,0,0,0.06172839506172839,0,0)" xlink:href="#Z"/><use transform="matrix(0.06172839506172839,0,0,0.06172839506172839,12.345679012345679,0)" xlink:href="#v"/><use transform="matrix(0.06172839506172839,0,0,0.06172839506172839,20.98765432098765,0)" xlink:href="#y"/><use transform="matrix(0.06172839506172839,0,0,0.06172839506172839,33.33333333333333,0)" xlink:href="#aa"/></g><g id="p"><use transform="matrix(0.05,0,0,0.05,0,0)" xlink:href="#Q"/><use transform="matrix(0.05,0,0,0.05,10,0)" xlink:href="#W"/><use transform="matrix(0.05,0,0,0.05,20,0)" xlink:href="#I"/><use transform="matrix(0.05,0,0,0.05,30,0)" xlink:href="#F"/><use transform="matrix(0.05,0,0,0.05,35,0)" xlink:href="#G"/><use transform="matrix(0.05,0,0,0.05,45,0)" xlink:href="#A"/><use transform="matrix(0.05,0,0,0.05,48.95,0)" xlink:href="#B"/></g><path fill="#333" d="M51-231l6-30h31l-6 30H51zM33 24C28 60 2 84-40 72c3-12-1-29 18-22C-5 49-1 37 2 19l41-209h32" id="ab"/><g id="q"><use transform="matrix(0.05,0,0,0.05,0,0)" xlink:href="#ab"/><use transform="matrix(0.05,0,0,0.05,3.95,0)" xlink:href="#W"/><use transform="matrix(0.05,0,0,0.05,13.949999999999998,0)" xlink:href="#Q"/><use transform="matrix(0.05,0,0,0.05,23.95,0)" xlink:href="#G"/><use transform="matrix(0.05,0,0,0.05,33.95,0)" xlink:href="#F"/><use transform="matrix(0.05,0,0,0.05,38.95,0)" xlink:href="#A"/><use transform="matrix(0.05,0,0,0.05,42.900000000000006,0)" xlink:href="#F"/><use transform="matrix(0.05,0,0,0.05,47.900000000000006,0)" xlink:href="#L"/><use transform="matrix(0.05,0,0,0.05,51.85,0)" xlink:href="#K"/></g><g id="r"><use transform="matrix(0.06172839506172839,0,0,0.06172839506172839,0,0)" xlink:href="#M"/><use transform="matrix(0.06172839506172839,0,0,0.06172839506172839,13.518518518518517,0)" xlink:href="#y"/><use transform="matrix(0.06172839506172839,0,0,0.06172839506172839,25.864197530864196,0)" xlink:href="#w"/><use transform="matrix(0.06172839506172839,0,0,0.06172839506172839,38.20987654320987,0)" xlink:href="#v"/><use transform="matrix(0.06172839506172839,0,0,0.06172839506172839,46.85185185185185,0)" xlink:href="#x"/><use transform="matrix(0.06172839506172839,0,0,0.06172839506172839,54.197530864197525,0)" xlink:href="#u"/><use transform="matrix(0.06172839506172839,0,0,0.06172839506172839,60.37037037037037,0)" xlink:href="#y"/><use transform="matrix(0.06172839506172839,0,0,0.06172839506172839,72.71604938271605,0)" xlink:href="#z"/></g><g id="s"><use transform="matrix(0.05,0,0,0.05,0,0)" xlink:href="#J"/><use transform="matrix(0.05,0,0,0.05,14.950000000000001,0)" xlink:href="#I"/><use transform="matrix(0.05,0,0,0.05,24.950000000000003,0)" xlink:href="#F"/><use transform="matrix(0.05,0,0,0.05,29.950000000000003,0)" xlink:href="#N"/><use transform="matrix(0.05,0,0,0.05,38.95,0)" xlink:href="#V"/><use transform="matrix(0.05,0,0,0.05,48.95,0)" xlink:href="#K"/><use transform="matrix(0.05,0,0,0.05,58.95,0)" xlink:href="#B"/><use transform="matrix(0.05,0,0,0.05,68.95,0)" xlink:href="#G"/><use transform="matrix(0.05,0,0,0.05,78.95,0)" xlink:href="#A"/><use transform="matrix(0.05,0,0,0.05,82.9,0)" xlink:href="#B"/></g></defs></g></svg>